<?xml version="1.0" standalone="no"?><!DOCTYPE svg PUBLIC "-//W3C//DTD SVG 1.1//EN" "http://www.w3.org/Graphics/SVG/1.1/DTD/svg11.dtd"><svg t="1783428466868" class="icon" viewBox="0 0 1024 1024" version="1.1" xmlns="http://www.w3.org/2000/svg" p-id="5263" width="256" height="256" xmlns:xlink="http://www.w3.org/1999/xlink"><path d="M743.424 902.144H280.576c-20.992 0-38.4-17.408-38.4-38.4s17.408-38.4 38.4-38.4h462.848c20.992 0 38.4 17.408 38.4 38.4 0 21.504-16.896 38.4-38.4 38.4zM819.2 121.856H204.8c-56.32 0-102.4 46.08-102.4 102.4v409.6c0 56.32 46.08 102.4 102.4 102.4h614.4c56.32 0 102.4-46.08 102.4-102.4v-409.6a102.4 102.4 0 0 0-102.4-102.4z m-11.776 207.36L604.16 502.272c-19.968 16.896-48.64 19.968-71.68 7.68L402.432 440.32l-133.12 144.384c-7.68 8.192-17.92 12.288-28.16 12.288-9.216 0-18.432-3.584-26.112-10.24a38.656 38.656 0 0 1-2.048-54.272l139.776-151.552c19.968-21.504 51.712-27.136 77.312-13.312l131.072 70.144 196.608-167.424c16.384-13.824 40.448-11.776 54.272 4.096 13.824 16.384 11.776 40.96-4.608 54.784z" p-id="5264" fill="#2ba31e"></path></svg>